<svg width="960" height="1040" viewBox="0 0 960 1040" fill="none" xmlns="http://www.w3.org/2000/svg">
  <rect width="960" height="1040" fill="#EFEFEE"/>
  <path d="M270 100C364 88 503 146 553 230C612 327 597 507 534 635C471 763 343 853 252 836C162 820 123 670 134 542C145 418 176 263 270 100Z" fill="#222222"/>
  <path d="M315 146C406 122 521 171 579 258C623 325 632 432 616 520C602 599 558 712 484 781C421 840 333 876 269 852C212 830 176 756 177 652C179 556 225 444 221 357C219 287 242 182 315 146Z" fill="#9E9E9E"/>
  <path d="M282 626C350 584 435 580 511 620C549 640 585 676 593 720C599 755 583 790 556 816C517 855 449 874 386 872C309 870 243 843 213 794C183 744 200 676 282 626Z" fill="#555555"/>
  <rect x="298" y="552" width="236" height="354" rx="32" fill="#7C7C7C"/>
  <rect x="337" y="603" width="157" height="303" rx="24" fill="#F8F7F3"/>
  <path d="M462 266C545 175 663 160 747 205C799 233 825 292 818 353C809 423 762 480 702 524C640 570 569 603 500 592C441 582 408 535 407 469C406 397 424 320 462 266Z" fill="#D2D2D2"/>
  <circle cx="639" cy="370" r="117" fill="#DDDDDD" stroke="#A8A8A8" stroke-width="18"/>
  <circle cx="639" cy="370" r="60" fill="#BDBDBD" stroke="#878787" stroke-width="10"/>
  <path d="M566 225C608 156 681 123 744 126C787 128 820 146 842 176" stroke="#D8D8D8" stroke-width="32" stroke-linecap="round"/>
  <ellipse cx="446" cy="936" rx="210" ry="28" fill="#D7D7D2"/>
</svg>
